<?xml version="1.0" encoding="utf-8"?>
<!-- Generator: Adobe Illustrator 16.0.0, SVG Export Plug-In . SVG Version: 6.00 Build 0)  -->
<!DOCTYPE svg PUBLIC "-//W3C//DTD SVG 1.1//EN" "http://www.w3.org/Graphics/SVG/1.1/DTD/svg11.dtd">
<svg version="1.1" id="Layer_1" xmlns="http://www.w3.org/2000/svg" xmlns:xlink="http://www.w3.org/1999/xlink" x="0px" y="0px"
	 width="600px" height="600px" viewBox="-115.707 -190.203 600 600" enable-background="new -115.707 -190.203 600 600"
	 xml:space="preserve">
<title>Breaking Bad logo</title>
<linearGradient id="SVGID_1_" gradientUnits="userSpaceOnUse" x1="-1144.4536" y1="-705.564" x2="-972.8173" y2="-533.9275" gradientTransform="matrix(1 0 0 1 1039.9297 643.7705)">
	<stop  offset="0" style="stop-color:#15453D"/>
	<stop  offset="1" style="stop-color:#006C24"/>
</linearGradient>
<rect x="-104.525" y="-61.794" fill="url(#SVGID_1_)" width="171.637" height="171.637"/>
<path fill="#072508" d="M-105.708,111.024V-62.978h174v172.82v1.181L-105.708,111.024L-105.708,111.024z M67.112,109.843v-1.18
	V109.843L67.112,109.843z M-103.348,108.663H65.929V-60.614h-169.277V108.663L-103.348,108.663z"/>
<path fill="#FFFFFF" d="M-78.267-22.562h44.898c15.677,0,28.269,7.904,28.269,23.72c0,10.454-5.756,17.285-16.213,19.292v0.271
	c13.133,1.341,20.5,12.195,20.5,23.584c0,23.853-17.013,28.547-36.847,28.547h-40.607V-22.562z M-60.307,15.766h21.308
	c7.904,0,15.146-3.085,15.146-12.198c0-7.239-4.695-11.925-15.146-11.925h-21.308V15.766z M-60.307,57.041h23.317
	c10.854,0,17.419-3.356,17.419-13.271c0-10.722-6.7-14.607-17.555-14.607h-23.182V57.041z"/>
<path fill="#FFFFFF" d="M10.437,5.044H26.79v9.377h0.267C30.945,6.65,38.446,3.437,47.961,3.437v16.619
	c-11.125,0-21.172,5.224-21.172,19.963v32.835H10.437V5.044z"/>
<path fill="#FFFFFF" d="M30.053-38.143h1.405c1.435,0,2.554-0.662,2.554-2.183c0-1.635-0.947-2.638-2.582-2.638
	c-1.979,0-2.613,1.722-2.754,3.357l-3.817-0.806c0.629-3.786,3.04-5.766,6.856-5.766c3.184,0,6.14,1.693,6.14,5.222
	c0,2.268-1.09,3.559-3.215,4.102v0.059c2.441,0.571,3.673,2.326,3.704,4.82c0,4.047-3.328,5.997-7.059,5.997
	c-3.818,0-6.771-1.777-6.771-6.713h3.672c0,2.093,1.062,3.501,3.212,3.501c1.838,0,2.929-1.235,2.929-3.012
	c0-2.183-1.377-2.899-2.871-2.899h-1.406L30.053-38.143L30.053-38.143z"/>
<path fill="#FFFFFF" d="M42.396-45.833h10.901l-0.371,3.386h-7.545l-0.604,4.072c1.003-0.885,2.21-1.377,3.501-1.377
	c4.159,0,6.14,3.07,6.14,6.685c0,4.479-3.128,7.088-7.259,7.088c-3.644,0-6.629-1.805-6.801-5.737l4.017-0.313
	c0.028,1.635,1.09,3.012,2.812,3.012c2.351,0,3.215-1.979,3.215-4.018c0-2.582-1.321-3.673-3.273-3.673
	c-1.436,0-2.238,0.629-2.782,1.867L41.021-35.1L42.396-45.833z"/>
<path fill="#154F3C" d="M97.097,37.729c-4.628,0-5.157,0.132-5.157,3.701c0,10.712,8.726,20.496,20.625,20.496
	c4.892,0,9.389-1.454,13.753-4.496c3.041-2.116,5.024-4.628,7.668-4.628c1.982,0,3.441,1.457,3.441,3.308
	c0,1.982-2.118,5.289-6.214,8.593c-7.274,5.949-14.018,8.993-23.14,8.993c-19.175,0-33.454-14.811-33.454-33.983
	c0-21.024,14.542-36.096,35.04-36.096c17.323,0,28.165,10.576,28.165,27.37c0,6.214-1.589,6.746-7.539,6.746H98.023
	C97.625,37.729,97.361,37.729,97.097,37.729z M118.515,30.058c3.176,0,4.231-0.396,4.231-2.512c0-8.332-6.215-15.339-15.339-15.339
	c-8.858,0-14.808,7.007-14.808,15.339c0,2.115,0.925,2.512,4.097,2.512H118.515z"/>
<path fill="#154F3C" d="M203.523,61.397c3.97,1.189,6.349,1.189,6.349,3.965c0,3.967-6.48,8.464-15.075,8.464
	c-5.026,0-8.464-7.007-9.786-7.007c-2.118,0-7.935,7.007-19.702,7.007c-13.089,0-21.951-8.329-21.951-20.628
	c0-14.147,10.58-22.875,29.622-22.875c3.437,0,7.668,0.396,12.561,1.189v-7.141c0-7.932-3.572-12.293-9.918-12.293
	c-4.495,0-8.197,1.982-11.637,5.949c-2.779,3.176-4.497,6.875-10.051,6.875c-3.572,0-5.817-2.512-5.817-6.347
	c0-7.668,10.182-14.94,27.898-14.94c10.182,0,17.322,2.776,21.156,7.668c3.442,4.364,3.705,10.976,3.705,20.496v21.683
	C200.879,58.091,201.54,60.868,203.523,61.397z M175.754,38.918c-9.786,0-15.339,4.628-15.339,12.164
	c0,7.007,4.892,11.769,12.96,11.769c9.122,0,12.164-3.836,12.164-12.824v-9.919C181.968,39.314,178.665,38.918,175.754,38.918z"/>
<path fill="#154F3C" d="M236.643,26.753c0,2.776,0.133,4.098,1.321,4.098c0.661,0,3.441-1.718,7.672-5.553
	c5.421-5.024,8.461-8.064,8.461-9.651c0-1.721-5.023-1.589-5.023-5.289c0-4.496,5.42-5.421,16.661-5.421
	c8.201,0,12.295,1.586,12.295,5.024c0,5.156-6.345,3.569-11.9,6.875c-2.643,1.586-5.554,4.628-9.254,8.329
	c-1.854,1.853-2.91,3.043-2.91,3.836c0,1.321,2.379,4.363,6.61,9.917c9.39,12.164,15.736,19.173,18.911,21.554
	c4.493,3.171,10.311,2.114,10.311,6.61c0,3.965-4.229,5.421-13.485,5.421c-3.836,0-6.347-0.396-7.14-0.662
	c-3.704-1.325-6.743-6.082-12.162-12.959c-11.639-14.807-17.723-22.61-19.046-22.61c-1.188,0-1.321,1.061-1.321,3.571
	c0,0.794,0,1.719,0,2.908c0,11.108,0.265,17.458,1.851,19.308c1.856,2.115,6.878,1.454,6.878,5.686c0,3.836-4.89,4.76-15.472,4.76
	c-11.768,0-16.793-0.661-16.793-5.156c0-3.045,2.777-3.045,5.025-4.232c2.775-1.586,3.304-6.346,3.304-15.339
	c0-5.024-0.132-11.107-0.132-18.775c0-2.908,0-5.686,0-8.329c0-19.703-0.133-27.267-1.851-29.25
	c-1.057-1.19-3.307-1.455-6.082-2.383c-2.118-0.661-3.043-1.19-3.043-3.172c0-2.777,2.515-3.835,7.407-5.553
	c7.668-2.647,13.486-3.44,15.997-3.44c2.91,0,3.703,1.721,3.703,5.685c0,7.007-0.793,14.041-0.793,27.267V26.753L236.643,26.753z"/>
<path fill="#154F3C" d="M316.644,50.421c0,7.14,0.396,11.24,2.646,12.428c3.045,1.719,5.946,1.322,5.946,4.892
	c0,3.836-4.757,4.759-15.338,4.759c-11.77,0-16.923-0.662-16.923-5.157c0-3.043,2.779-3.043,5.021-4.231
	c2.646-1.454,3.175-4.76,3.175-10.579c0-2.776-0.132-5.95-0.132-9.918c0-2.512,0-4.889,0-7.007c0-10.844-0.133-16.529-2.382-17.718
	c-3.303-1.719-7.269-1.455-7.269-4.76c0-2.116,1.85-3.569,5.42-5.025c9.123-3.569,15.998-4.492,17.319-4.492
	c2.646,0,3.441,1.851,3.441,5.686c0,1.718,0,4.098-0.134,7.007l-0.529,17.19C316.775,39.314,316.644,45,316.644,50.421z
	 M307.915-21.021c6.082,0,10.186,3.836,10.186,8.595c0,4.76-4.494,8.858-10.979,8.858c-5.95,0-10.05-3.569-10.05-8.197
	C297.075-16.657,301.7-21.021,307.915-21.021z"/>
<path fill="#154F3C" d="M374.596,3.613c6.875,0,13.09,3.305,16.927,7.8c5.288,6.347,5.684,14.147,5.684,24.726
	c0,5.025,0,8.068,0,9.125c0,3.172-0.132,5.817-0.132,8.197c0,5.289,0.396,8.2,3.044,9.654c2.249,1.19,5.023,1.19,5.023,4.231
	c0,4.494-5.023,5.025-16.528,5.025c-10.843,0-15.868-0.661-15.868-4.627c0-3.575,2.907-3.178,5.948-4.893
	c2.381-1.321,2.777-5.817,2.777-14.014c0-21.29-0.265-32.266-12.558-32.266c-4.76,0-9.524,3.041-11.9,7.933
	c-2.513,5.025-2.645,13.886-2.645,26.711c0,6.611,0.132,10.315,2.513,11.637c3.042,1.719,5.948,1.322,5.948,4.893
	c0,3.835-4.76,4.76-15.341,4.76c-11.769,0-16.924-0.662-16.924-5.157c0-3.045,2.78-3.045,5.021-4.231
	c2.65-1.454,3.18-4.76,3.18-10.579c0-2.776-0.133-5.95-0.133-9.919c0-2.512,0-4.889,0-7.007c0-10.843-0.134-16.529-2.387-17.718
	c-3.304-1.719-7.267-1.454-7.267-4.76c0-2.115,1.849-3.569,5.42-5.025c8.593-3.304,14.939-4.23,16.658-4.23
	c2.514,0,3.574,1.19,3.574,4.23v3.704c0,0.397,0,0.662,0,0.794c0,0.528,0,0.792,0.527,0.792c0.266,0,0.528-0.132,0.662-0.264
	l1.586-1.455C361.375,8.107,364.945,3.613,374.596,3.613z"/>
<path fill="#154F3C" d="M410.295,29.132c0-14.546,12.162-25.519,29.222-25.519c4.627,0,10.446,1.058,17.454,2.644
	c3.572,0,7.403-1.85,12.559-5.421c1.853,1.19,2.914,2.779,2.914,4.364c0,3.701-2.781,7.404-8.201,10.182
	c1.852,3.569,2.781,7.007,2.781,10.976c0,14.543-11.638,25.122-29.625,25.122c-4.888,0-9.383-0.661-13.484-2.115
	c-1.85,1.982-2.776,3.701-2.776,5.289c0,4.36,4.361,6.214,13.09,6.214c6.744,0,13.618-1.458,20.761-1.458
	c12.559,0,19.304,5.29,19.304,14.679c0,13.752-14.81,24.993-37.286,24.993c-18.249,0-29.885-8.725-29.885-17.853
	c0-4.892,3.177-8.197,9.521-12.032c-5.286-1.851-8.196-5.421-8.196-9.918c0-4.625,3.305-8.99,9.784-12.957
	C412.938,41.826,410.295,36.007,410.295,29.132z M421.669,79.908c0,5.95,6.479,10.45,17.849,10.45
	c12.692,0,20.889-5.688,20.889-12.035c0-4.231-3.038-6.743-8.854-6.743c-4.102,0-10.186,1.322-17.983,1.322
	c-2.648,0-5.42-0.132-8.466-0.528C422.722,74.618,421.669,77,421.669,79.908z M438.325,42.75c7.536,0,13.222-6.082,13.222-15.204
	c0-9.39-5.553-15.472-13.088-15.472c-6.878,0-12.43,6.214-12.43,15.339C426.029,36.801,431.185,42.75,438.325,42.75z"/>
<path fill="#154F3C" d="M296.574,237.324c0-1.189-0.265-1.718-0.532-1.718c-0.396,0-1.982,1.454-5.02,3.703
	c-5.154,3.836-10.185,5.815-15.868,5.815c-16.396,0-28.43-12.822-28.43-32.658c0-21.95,13.486-37.019,32.527-37.019
	c9.261,0,14.946,3.966,16.001,3.966c0.793,0,0.925-1.189,0.925-3.309v-4.785c0-6.082-0.793-8.067-4.23-9.257
	c-3.177-1.058-5.947-1.058-5.947-4.099c0-2.909,2.777-4.232,8.33-6.215c5.813-2.114,10.444-2.908,13.748-2.908
	c3.042,0,4.229,1.587,4.229,5.553c0,2.247-0.793,14.043-0.793,41.808c0,22.611,0.133,34.115,1.985,35.437
	c2.909,2.114,8.197,0.793,8.197,4.761c0,3.172-3.571,4.229-10.446,6.479c-4.627,1.586-9.392,2.115-11.109,2.115
	c-2.513,0-3.566-1.322-3.566-4.361V237.324L296.574,237.324z M295.913,199.245c0-3.703,0-6.218-1.321-7.936
	c-2.775-3.703-8.458-6.74-14.279-6.74c-9.655,0-16.396,8.326-16.396,22.876c0,15.732,7.668,25.519,17.322,25.519
	c9.386,0,14.675-5.156,14.675-15.335V199.245z"/>
<linearGradient id="SVGID_2_" gradientUnits="userSpaceOnUse" x1="-801.1538" y1="-362.3745" x2="-972.7949" y2="-534.0157" gradientTransform="matrix(1 0 0 1 1039.9297 643.7705)">
	<stop  offset="0" style="stop-color:#15453D"/>
	<stop  offset="1" style="stop-color:#006C24"/>
</linearGradient>
<rect x="67.134" y="109.756" fill="url(#SVGID_2_)" width="171.644" height="171.638"/>
<path fill="#072508" d="M65.951,282.571V108.576h174.006v172.818v1.177H65.951L65.951,282.571z M238.777,281.397v-1.181V281.397
	L238.777,281.397z M68.311,280.217h169.286l-0.003-169.279H68.311V280.217L68.311,280.217z"/>
<path fill="#FFFFFF" d="M79.978,148.993h44.886c15.682,0,28.276,7.906,28.276,23.716c0,10.455-5.763,17.279-16.219,19.294v0.271
	c13.137,1.338,20.505,12.188,20.505,23.574c0,23.855-17.017,28.554-36.853,28.554H79.976L79.978,148.993L79.978,148.993z
	 M97.933,187.314h21.305c7.901,0,15.143-3.083,15.143-12.189c0-7.237-4.691-11.931-15.143-11.931H97.933V187.314z M97.933,228.585
	h23.309c10.858,0,17.429-3.35,17.429-13.269c0-10.718-6.703-14.601-17.558-14.601H97.934L97.933,228.585L97.933,228.585z"/>
<path fill="#FFFFFF" d="M225.363,233.01c0,6.967,1.605,9.918,2.54,11.39H210.62c-1.066-1.607-1.605-4.426-1.605-6.168
	c-6.298,5.093-13.672,7.77-22.116,7.77c-12.863,0-23.048-8.169-23.048-21.296c0-13.275,10.586-19.177,20.638-21.185l6.833-1.336
	c5.897-1.204,13.539-2.546,17.693-4.02v-2.01c0-6.7-5.763-8.573-12.868-8.573c-9.514,0-12.599,2.812-12.599,10.188l-16.347-0.676
	c0-15.941,14.069-22.101,28.946-22.101c14.612,0,29.214,2.947,29.214,22.239v35.777H225.363z M209.015,210.495
	c-2.138,1.074-4.824,1.877-7.774,2.408l-8.98,1.881c-6.162,1.206-11.25,2.944-11.25,9.377c0,5.096,4.686,8.445,10.586,8.445
	c7.639,0,17.422-3.752,17.422-12.459L209.015,210.495L209.015,210.495z"/>
<path fill="#FFFFFF" d="M197.529,124.586h10.904l-0.373,3.387h-7.546l-0.604,4.075c1.007-0.89,2.21-1.38,3.502-1.38
	c4.163,0,6.141,3.07,6.141,6.688c0,4.476-3.129,7.087-7.259,7.087c-3.644,0-6.63-1.809-6.802-5.739l4.019-0.313
	c0.029,1.635,1.089,3.012,2.812,3.012c2.354,0,3.215-1.979,3.215-4.018c0-2.583-1.321-3.672-3.272-3.672
	c-1.431,0-2.238,0.628-2.783,1.867l-3.327-0.259L197.529,124.586z"/>
<path fill="#FFFFFF" d="M221.32,129.694c-0.113-1.377-1.004-2.237-2.325-2.237c-2.786,0-3.414,3.639-3.414,5.935h0.057
	c0.487-0.716,1.605-1.805,3.815-1.805c3.644,0,5.769,2.609,5.769,6.427c0,3.617-2.642,6.43-6.514,6.43
	c-5.682,0-6.976-5.08-6.976-9.612c0-6.168,2.41-10.589,7.287-10.589c3.273,0,5.454,1.696,6.001,4.962L221.32,129.694z
	 M215.866,138.014c0,2.007,1.007,3.215,2.845,3.215c1.835,0,2.842-1.208,2.842-3.215c0-2.005-1.007-3.212-2.842-3.212
	C216.873,134.802,215.866,136.009,215.866,138.014z"/>
</svg>
